0
SECTION
2
HEADER
9
$INSUNITS
70
4
9
$ACADVER
1
AC1015
0
ENDSEC
0
SECTION
2
ENTITIES
0
LWPOLYLINE
8
FLOOR
90
4
70
1
10
0.0
20
0.0
10
30000.0
20
0.0
10
30000.0
20
20000.0
10
0.0
20
20000.0
0
LINE
8
WALL
10
0.0
20
0.0
11
30000.0
21
0.0
0
LINE
8
WALL
10
30000.0
20
0.0
11
30000.0
21
20000.0
0
LINE
8
WALL
10
30000.0
20
20000.0
11
0.0
21
20000.0
0
LINE
8
WALL
10
0.0
20
20000.0
11
0.0
21
0.0
0
LINE
8
WALL
10
12000.0
20
0.0
11
12000.0
21
9000.0
0
CIRCLE
8
COL
10
10000.0
20
10000.0
40
200.0
0
CIRCLE
8
COL
10
20000.0
20
10000.0
40
200.0
0
ARC
8
WALL
10
15000.0
20
5000.0
40
1000.0
50
0.0
51
90.0
0
POLYLINE
8
OFFICE
70
1
0
VERTEX
8
OFFICE
10
1000.0
20
1000.0
0
VERTEX
8
OFFICE
10
5000.0
20
1000.0
0
VERTEX
8
OFFICE
10
5000.0
20
4000.0
0
VERTEX
8
OFFICE
10
1000.0
20
4000.0
0
SEQEND
0
INSERT
8
DOOR
2
SD-01
10
6000.0
20
0.0
50
0.0
0
INSERT
8
DOOR
2
SHUTTER-01
10
25000.0
20
20000.0
50
180.0
0
INSERT
8
EQUIP
2
PRESS-01
10
5000.0
20
15000.0
50
90.0
0
INSERT
8
EQUIP
2
CONV-A
10
18000.0
20
15000.0
50
0.0
0
LINE
8
DIM
10
0.0
20
-1500.0
11
30000.0
21
-1500.0
0
LINE
8
DIM
10
0.0
20
-1800.0
11
0.0
21
-1200.0
0
TEXT
8
TEXT
10
15000.0
20
-2500.0
1
30000
0
LWPOLYLINE
8
HATCH
90
3
70
1
10
2000.0
20
6000.0
10
2400.0
20
6000.0
10
2200.0
20
6400.0
0
ENDSEC
0
EOF
